# https://github.com/mikedh/trimesh
mtllib material_0.mtl
usemtl material_0
v 0.00703900 0.19516400 0.28966600
v 0.00125400 0.19576800 0.29113800
v 0.00125400 0.19576800 0.29113800
v 0.01539700 0.19419800 0.28753900
v 0.01539700 0.19419800 0.28753900
v 0.01539700 0.19419800 0.28753900
v 0.01539700 0.19419800 0.28753900
v -0.00363000 0.19860800 0.28307800
v -0.00363000 0.19860800 0.28307800
v -0.00233000 0.19519100 0.29213300
v 0.02838500 0.19329400 0.27472500
v 0.02838500 0.19329400 0.27472500
v 0.00796900 0.19582500 0.27721500
v 0.00796900 0.19582500 0.27721500
v -0.01156400 0.19423800 0.28966600
v 0.03308500 0.19378700 0.25705400
v 0.01937500 0.19766500 0.26999400
v 0.01937500 0.19766500 0.26999400
v 0.00963400 0.19834300 0.27960400
v 0.00963400 0.19834300 0.27960400
v 0.00963400 0.19834300 0.27960400
v 0.00963400 0.19834300 0.27960400
v 0.00963400 0.19834300 0.27960400
v -0.01677800 0.19712500 0.27957300
v 0.02839000 0.19549000 0.23981400
v 0.02290000 0.19803500 0.25674000
v 0.02290000 0.19803500 0.25674000
v 0.00720200 0.20752400 0.27644800
v 0.00720200 0.20752400 0.27644800
v 0.00720200 0.20752400 0.27644800
v 0.00720200 0.20752400 0.27644800
v 0.01652900 0.19672400 0.24502700
v 0.01652900 0.19672400 0.24502700
v 0.01586100 0.20692200 0.26790600
v -0.00457400 0.20754700 0.27955000
v -0.00457400 0.20754700 0.27955000
v -0.01626000 0.20620400 0.27643200
v -0.01986700 0.19328500 0.28744900
v 0.02823900 0.19552100 0.23925800
v 0.02823900 0.19552100 0.23925800
v 0.02823900 0.19552100 0.23925800
v 0.02823900 0.19552100 0.23925800
v 0.02823900 0.19552100 0.23925800
v -0.02643200 0.19646400 0.26987600
v -0.03273800 0.19240400 0.27452100
v 0.01899400 0.20725100 0.25612200
v 0.01576300 0.20842300 0.24425500
v 0.01576300 0.20842300 0.24425500
v 0.01576300 0.20842300 0.24425500
v 0.01576300 0.20842300 0.24425500
v -0.02484100 0.20561700 0.26781600
v -0.03750300 0.19289100 0.25680700
v 0.01518100 0.19749500 0.22614200
v 0.01926500 0.19934800 0.24338900
v 0.01926500 0.19934800 0.24338900
v 0.01926500 0.19934800 0.24338900
v 0.01926500 0.19934800 0.24338900
v 0.01926500 0.19934800 0.24338900
v -0.03000500 0.19682900 0.25659200
v -0.03308100 0.19454200 0.23981400
v 0.00125400 0.19940400 0.22226100
v 0.00704200 0.20996700 0.23549800
v -0.00257400 0.19891900 0.22124200
v -0.00474800 0.21020400 0.23227900
v -0.00474800 0.21020400 0.23227900
v 0.00946000 0.20100000 0.23354400
v 0.00946000 0.20100000 0.23354400
v -0.02801700 0.20594200 0.25600400
v -0.02654000 0.19811500 0.24327600
v -0.00382100 0.20153300 0.22990100
v -0.00382100 0.20153300 0.22990100
v -0.02007900 0.19652100 0.22605600
v -0.01641800 0.20860500 0.23548600
v -0.02493800 0.20709200 0.24416900
v -0.03288100 0.19458300 0.23905400
v -0.01695000 0.19973500 0.23351200
v 0.02578800 0.15730400 -0.10636300
v -0.00027100 0.16377900 -0.09235000
v 0.03089000 0.15507500 -0.11168700
v 0.01760700 0.16047400 -0.09785000
v 0.00125400 0.16387500 -0.09277500
v -0.00583500 0.16261000 -0.09412600
v 0.01201400 0.16202700 -0.10517700
v 0.00429200 0.16321500 -0.09383300
v -0.00137800 0.16425500 -0.10104400
v -0.01444500 0.16153100 -0.10497600
v -0.01769800 0.16019800 -0.09758300
v -0.02585700 0.15696500 -0.10636300
v 0.03602400 0.14895200 -0.13031100
v 0.03602400 0.14895200 -0.13031100
v 0.02198600 0.15784200 -0.11570200
v -0.03028500 0.15497500 -0.11117300
v 0.03412000 0.14688800 -0.13822500
v 0.02583600 0.15325000 -0.12967000
v 0.02583600 0.15325000 -0.12967000
v 0.01850900 0.16651300 -0.11601700
v 0.02193200 0.16243200 -0.12843400
v 0.00965500 0.17010200 -0.10627900
v -0.00225200 0.17211700 -0.10227200
v -0.01386800 0.16969800 -0.10597500
v -0.02387100 0.15739500 -0.11536600
v -0.03462500 0.14898600 -0.12969900
v 0.02560200 0.14330800 -0.15430200
v 0.03159700 0.14428700 -0.14825500
v 0.03159700 0.14428700 -0.14825500
v 0.01898600 0.15923800 -0.14067800
v -0.02223800 0.16590600 -0.11574600
v -0.02712700 0.15292000 -0.12925700
v -0.02958200 0.14425600 -0.14813900
v 0.01045400 0.15791100 -0.14945500
v 0.02252000 0.14968900 -0.14334000
v -0.02513600 0.16198100 -0.12808800
v -0.02662300 0.14375800 -0.15117500
v -0.02345800 0.14326000 -0.15430200
v 0.01882700 0.14186800 -0.16115700
v 0.01292800 0.14808800 -0.15314700
v -0.00132400 0.15797100 -0.15252100
v -0.02334600 0.14937400 -0.14308700
v -0.02177500 0.15882900 -0.14038100
v -0.01353500 0.14767800 -0.15304300
v -0.01649500 0.14184400 -0.16115700
v 0.00125400 0.14258700 -0.16584300
v -0.00029900 0.14831300 -0.15661800
v -0.01305900 0.15736000 -0.14932400
v 0.00112000 0.14255700 -0.16587900
vn -0.16498403 -0.95817317 -0.23384704
vn 0.86641908 0.10415301 -0.48833404
vn -0.86641908 -0.10415301 0.48833404
vn -0.31218014 -0.91603940 -0.25182411
vn 0.81278958 0.01502099 -0.58236370
vn -0.81278958 -0.01502099 0.58236370
vn -0.14513803 -0.93959922 -0.30998107
vn 0.75900102 0.64697701 0.07306300
vn -0.75900102 -0.64697701 -0.07306300
vn 0.14781602 -0.91953213 -0.36415805
vn -0.46735411 -0.00623700 0.88404821
vn 0.46735411 0.00623700 -0.88404821
vn 0.81278958 0.01502099 -0.58236370
vn -0.81278958 -0.01502099 0.58236370
vn 0.19596798 -0.91138391 -0.36190596
vn -0.38286106 -0.92208414 -0.05637601
vn 0.75570094 0.40164397 0.51729896
vn -0.75570094 -0.40164397 -0.51729896
vn -0.12412400 -0.91514497 -0.38353999
vn 0.12412400 0.91514497 0.38353999
vn 0.81278958 0.01502099 -0.58236370
vn -0.81278958 -0.01502099 0.58236370
vn -0.52235801 -0.70497701 -0.47973901
vn 0.34892700 -0.76685900 -0.53868100
vn -0.35597217 -0.93416145 0.02502401
vn 0.70259626 -0.71072226 -0.03510501
vn -0.70259626 0.71072226 0.03510501
vn -0.81278958 -0.01502099 0.58236370
vn -0.65905709 -0.39474805 -0.64017008
vn -0.23722806 -0.37154010 -0.89759724
vn 0.81278958 0.01502099 -0.58236370
vn 0.44746197 0.08778599 0.88998394
vn -0.44746197 -0.08778599 -0.88998394
vn -0.79338997 -0.40401699 -0.45530498
vn 0.28184299 -0.31987699 -0.90456798
vn -0.28184299 0.31987699 0.90456798
vn 0.49916588 -0.30820393 -0.80984181
vn 0.27948808 -0.90166927 -0.32996810
vn -0.31681897 -0.93217092 0.17516598
vn -0.88832287 0.33051495 -0.31881395
vn -0.44746197 -0.08778599 -0.88998394
vn 0.44746197 0.08778599 0.88998394
vn 0.88832287 -0.33051495 0.31881395
vn 0.67920714 -0.62756513 -0.38057808
vn 0.40763395 -0.88599090 -0.22103097
vn -0.92011044 -0.39121019 -0.01874501
vn -0.44746197 -0.08778599 -0.88998394
vn -0.90515924 -0.36950310 0.21012905
vn 0.44746197 0.08778599 0.88998394
vn -0.69697729 -0.32830114 0.63752727
vn 0.84055785 -0.25385796 -0.47855892
vn 0.46407676 -0.88542755 -0.02551099
vn -0.24141107 -0.94665828 0.21344506
vn 0.02822699 -0.98277366 -0.18264494
vn -0.44746197 -0.08778599 -0.88998394
vn -0.70182073 -0.70181073 0.12210395
vn -0.02822699 0.98277366 0.18264494
vn 0.44746197 0.08778599 0.88998394
vn 0.79060945 -0.61104635 -0.03948502
vn 0.45714211 -0.88783522 0.05262801
vn -0.06743702 -0.97179324 0.22598706
vn -0.41992295 -0.30305296 0.85546690
vn 0.12783104 -0.94427129 0.30333309
vn -0.99461607 -0.10285801 -0.01261400
vn 0.99461607 0.10285801 0.01261400
vn 0.52767308 -0.41005907 -0.74391712
vn -0.52767308 0.41005907 0.74391712
vn 0.97671733 -0.21399207 -0.01518701
vn 0.67069817 -0.67304917 0.31171908
vn 0.21384004 -0.97554119 0.05091001
vn -0.21384004 0.97554119 -0.05091001
vn 0.29296394 -0.91662283 0.27198295
vn 0.59000906 -0.20979702 0.77966308
vn 0.86275202 -0.20031301 0.46425601
vn 0.39683691 -0.90183980 0.17089596
vn 0.44472292 -0.71746887 0.53615291
vn -0.31833695 -0.94550386 0.06843999
vn 0.16887504 -0.98262924 -0.07694802
vn -0.33747009 -0.93374426 0.11931303
vn -0.23478507 -0.97204229 -0.00312500
vn -0.08041401 -0.99655707 -0.02018900
vn 0.22600493 -0.97059671 -0.08284798
vn -0.45018194 -0.79616289 -0.40430295
vn -0.20154195 -0.97932876 0.01720500
vn 0.00048500 -0.87258678 -0.48845888
vn 0.51189017 -0.74758124 -0.42319114
vn 0.31960786 -0.94745359 -0.01350999
vn 0.35745296 -0.93330489 0.03419600
vn -0.15121096 -0.21443895 -0.96496175
vn 0.15121096 0.21443895 0.96496175
vn -0.71761732 -0.65527729 -0.23587510
vn 0.42488401 -0.89561902 0.13168200
vn -0.35100816 -0.88157439 0.31562614
vn -0.91217080 -0.40853291 0.03233099
vn 0.91217080 0.40853291 -0.03233099
vn -0.86154409 -0.35845704 -0.35951404
vn -0.89892223 -0.40415210 0.16911504
vn -0.63727597 -0.29222399 -0.71308097
vn -0.11909200 -0.18133900 -0.97618301
vn 0.48810386 -0.13081296 -0.86292676
vn 0.70508600 -0.69957300 -0.11598000
vn 0.43743504 -0.86212908 0.25570302
vn -0.26893701 -0.86337702 0.42691101
vn -0.28784099 -0.86066596 0.42000198
vn 0.28784099 0.86066596 -0.42000198
vn -0.71421331 -0.41779518 0.56155724
vn 0.85975422 -0.17059204 -0.48137412
vn 0.71406395 -0.67487895 0.18614799
vn 0.35228813 -0.84076931 0.41109615
vn -0.37341617 -0.40992218 0.83218037
vn -0.53936110 -0.71583913 0.44346808
vn 0.97670664 -0.21449392 -0.00604200
vn 0.31456798 -0.83694795 0.44784497
vn 0.30993697 -0.82888792 0.46570795
vn -0.24393595 -0.85157983 0.46401191
vn -0.37114594 -0.66241390 0.65073690
vn 0.09930600 -0.38107102 0.91919704
vn 0.64227896 -0.54635796 0.53755996
vn 0.80917819 -0.28199507 0.51547012
vn 0.34554699 -0.68438998 0.64203398
vn 0.22237198 -0.82655394 0.51706796
vn -0.09208999 -0.84818295 0.52163697
vn 0.00703000 -0.68548388 0.72805387
vn 0.53611691 -0.32822794 0.77771787
vn 0.11160501 -0.83626909 0.53684106
f 9//9 1//1 3//3
f 9//9 7//7 1//1
f 2//2 10//10 8//8
f 4//4 18//18 12//12
f 13//13 21//21 5//5
f 6//6 22//22 14//14
f 9//9 19//19 7//7
f 8//8 10//10 24//24
f 10//10 15//15 24//24
f 16//16 11//11 26//26
f 18//18 4//4 23//23
f 17//17 26//26 11//11
f 21//21 13//13 31//31
f 28//28 14//14 22//22
f 36//36 19//19 9//9
f 24//24 37//37 8//8
f 24//24 15//15 38//38
f 25//25 16//16 26//26
f 29//29 18//18 23//23
f 34//34 27//27 18//18
f 30//30 20//20 35//35
f 35//35 8//8 37//37
f 24//24 44//44 37//37
f 24//24 38//38 44//44
f 43//43 25//25 26//26
f 18//18 29//29 34//34
f 27//27 34//34 46//46
f 51//51 37//37 44//44
f 45//45 44//44 38//38
f 56//56 40//40 27//27
f 48//48 27//27 46//46
f 49//49 32//32 58//58
f 55//55 33//33 47//47
f 44//44 59//59 51//51
f 44//44 45//45 59//59
f 52//52 59//59 45//45
f 39//39 54//54 53//53
f 58//58 32//32 42//42
f 41//41 33//33 55//55
f 27//27 48//48 56//56
f 50//50 67//67 57//57
f 68//68 51//51 59//59
f 69//69 59//59 52//52
f 60//60 69//69 52//52
f 61//61 53//53 70//70
f 53//53 54//54 66//66
f 50//50 62//62 67//67
f 68//68 59//59 74//74
f 69//69 74//74 59//59
f 75//75 69//69 60//60
f 53//53 66//66 70//70
f 63//63 61//61 70//70
f 64//64 71//71 62//62
f 62//62 71//71 67//67
f 63//63 70//70 72//72
f 65//65 73//73 70//70
f 69//69 73//73 74//74
f 76//76 69//69 75//75
f 76//76 72//72 70//70
f 76//76 70//70 73//73
f 76//76 73//73 69//69
f 72//72 76//76 75//75
f 83//83 79//79 77//77
f 83//83 77//77 80//80
f 85//85 81//81 78//78
f 86//86 78//78 82//82
f 83//83 91//91 79//79
f 85//85 83//83 80//80
f 85//85 80//80 84//84
f 85//85 84//84 81//81
f 86//86 85//85 78//78
f 87//87 86//86 82//82
f 79//79 94//94 89//89
f 83//83 98//98 91//91
f 94//94 79//79 91//91
f 99//99 83//83 85//85
f 100//100 85//85 86//86
f 101//101 86//86 87//87
f 88//88 101//101 87//87
f 92//92 101//101 88//88
f 93//93 90//90 95//95
f 99//99 98//98 83//83
f 98//98 96//96 91//91
f 91//91 97//97 94//94
f 99//99 85//85 100//100
f 86//86 107//107 100//100
f 86//86 101//101 107//107
f 102//102 108//108 92//92
f 92//92 108//108 101//101
f 105//105 93//93 95//95
f 97//97 91//91 96//96
f 97//97 106//106 111//111
f 97//97 111//111 94//94
f 101//101 112//112 107//107
f 109//109 108//108 102//102
f 101//101 108//108 112//112
f 111//111 103//103 104//104
f 111//111 104//104 94//94
f 106//106 110//110 116//116
f 106//106 116//116 111//111
f 108//108 109//109 118//118
f 108//108 119//119 112//112
f 109//109 113//113 120//120
f 115//115 103//103 111//111
f 110//110 123//123 116//116
f 116//116 115//115 111//111
f 109//109 120//120 118//118
f 119//119 108//108 118//118
f 113//113 114//114 120//120
f 114//114 121//121 120//120
f 122//122 115//115 116//116
f 117//117 123//123 110//110
f 123//123 122//122 116//116
f 117//117 124//124 120//120
f 124//124 118//118 120//120
f 119//119 118//118 124//124
f 121//121 125//125 123//123
f 121//121 123//123 120//120
f 123//123 125//125 122//122
f 117//117 120//120 123//123