# https://github.com/mikedh/trimesh
mtllib material_0.mtl
usemtl material_0
v -0.19050900 0.10096300 0.15648400
v -0.19046400 0.09990500 0.16100100
v -0.19046400 0.09990500 0.16100100
v -0.19140200 0.10038700 0.15252200
v -0.19301700 0.09834500 0.14930700
v -0.19042100 0.09976400 0.16159300
v -0.19511700 0.09517500 0.14713500
v -0.19363300 0.05476800 0.25472600
v -0.19109200 0.09653000 0.16720700
v -0.21618100 0.05441900 0.16109900
v -0.21618100 0.05441900 0.16109900
v -0.19261800 0.09750700 0.15541400
v -0.19746900 0.09122700 0.14630700
v -0.19390600 0.09615500 0.15175300
v -0.19670500 0.05351900 0.24601900
v -0.19357800 0.05469900 0.25507700
v -0.19357800 0.05469900 0.25507700
v -0.19281200 0.09125600 0.17332100
v -0.19313700 0.09518000 0.16101100
v -0.19313700 0.09518000 0.16101100
v -0.21551500 0.05586700 0.16004300
v -0.21734900 0.05160600 0.16315600
v -0.21734900 0.05160600 0.16315600
v -0.19263000 0.09675200 0.15832600
v -0.19308600 0.09721300 0.15329600
v -0.20297700 0.08116700 0.14760800
v -0.19659500 0.09174500 0.15038600
v -0.20123600 0.04908100 0.23858900
v -0.19558200 0.08394700 0.17994200
v -0.19324400 0.09467400 0.16187300
v -0.20899200 0.06937900 0.15218700
v -0.20845000 0.06809400 0.16107000
v -0.20845000 0.06809400 0.16107000
v -0.21535700 0.05075300 0.17514400
v -0.21535700 0.05075300 0.17514400
v -0.21868900 0.04062800 0.17117600
v -0.22525100 -0.01087200 0.20729900
v -0.19946400 0.08653400 0.15095000
v -0.19162500 0.05298200 0.26372300
v -0.20257100 0.06726000 0.19182100
v -0.19597700 0.08655800 0.17087800
v -0.20881700 0.06724100 0.16162200
v -0.21591400 0.04547000 0.17947700
v -0.22058100 0.02148800 0.18756700
v -0.22470900 -0.00805600 0.20631700
v -0.22519800 -0.01103900 0.20781200
v -0.22519800 -0.01103900 0.20781200
v -0.20257600 0.08051200 0.15299700
v -0.19122600 0.04827600 0.27277800
v -0.20386100 0.04587300 0.23560500
v -0.20386100 0.04587300 0.23560500
v -0.19908900 0.04779600 0.24917200
v -0.20207000 0.07134000 0.18306900
v -0.21189900 0.04927500 0.19593600
v -0.21189900 0.04927500 0.19593600
v -0.22417100 -0.00706900 0.20785000
v -0.22417100 -0.00706900 0.20785000
v -0.22435000 -0.00703100 0.20682600
v -0.22476600 -0.01191800 0.21051800
v -0.21457900 -0.04117500 0.25403300
v -0.21457900 -0.04117500 0.25403300
v -0.19239100 0.04106300 0.28140100
v -0.19239100 0.04106300 0.28140100
v -0.19825300 0.04643200 0.25509600
v -0.19825300 0.04643200 0.25509600
v -0.20078700 0.04722500 0.24410600
v -0.20386600 0.04586400 0.23559800
v -0.21095500 0.04887300 0.20160700
v -0.21095500 0.04887300 0.20160700
v -0.21102900 0.05112800 0.19507600
v -0.21521600 0.02990800 0.20492200
v -0.22231500 0.00011800 0.20791700
v -0.22231500 0.00011800 0.20791700
v -0.21869400 0.01411300 0.20804900
v -0.21869400 0.01411300 0.20804900
v -0.22370500 -0.01085500 0.21376900
v -0.22233700 -0.01338900 0.22207700
v -0.22233700 -0.01338900 0.22207700
v -0.21532900 -0.03874200 0.25093500
v -0.20689500 -0.06126800 0.27961500
v -0.19785200 0.04334600 0.26144500
v -0.19785200 0.04334600 0.26144500
v -0.19791100 0.04605500 0.25673700
v -0.20269600 0.04538100 0.24092200
v -0.20269600 0.04538100 0.24092200
v -0.20532300 0.04224700 0.23341300
v -0.21121800 0.04721800 0.20248800
v -0.21724400 0.01972800 0.20810100
v -0.21724400 0.01972800 0.20810100
v -0.21391000 0.03261700 0.20822300
v -0.21391000 0.03261700 0.20822300
v -0.22416900 -0.00706900 0.20786200
v -0.22395400 -0.00729900 0.20898700
v -0.21468400 -0.02901100 0.25427200
v -0.21468400 -0.02901100 0.25427200
v -0.20332400 -0.05971800 0.29203300
v -0.19234800 0.04065200 0.28189300
v -0.20668900 0.03822700 0.23203200
v -0.20288900 0.04509500 0.24042300
v -0.21879900 0.01109800 0.21079500
v -0.22333300 -0.00627400 0.21046600
v -0.22245900 -0.00736500 0.21521900
v -0.21248900 -0.03531200 0.26154700
v -0.20339500 -0.06921500 0.29131600
v -0.20103100 -0.06500900 0.29970000
v -0.20103100 -0.06500900 0.29970000
v -0.19306000 0.01532100 0.30093700
v -0.19306000 0.01532100 0.30093700
v -0.19226700 0.03011100 0.29106500
v -0.19731400 0.04136400 0.26488900
v -0.20796000 0.03380600 0.23146100
v -0.20439400 0.04140200 0.23812500
v -0.21499200 0.02588800 0.21086700
v -0.21888000 0.00630000 0.21553200
v -0.22239400 -0.00305600 0.21093900
v -0.21888300 -0.01402900 0.23696700
v -0.21888300 -0.01402900 0.23696700
v -0.21106500 -0.03566500 0.26644900
v -0.20095400 -0.07394900 0.29952600
v -0.20095400 -0.07394900 0.29952600
v -0.21020500 -0.03642700 0.26939200
v -0.19340900 0.00716900 0.30567900
v -0.19275000 0.01922600 0.29866600
v -0.19662100 0.03372500 0.27363100
v -0.20596300 0.03614700 0.23721300
v -0.20958900 0.02719200 0.23173300
v -0.21895700 -0.01094300 0.23340100
v -0.21472000 -0.02496900 0.25435100
v -0.21472000 -0.02496900 0.25435100
v -0.21209000 -0.03357300 0.26301200
v -0.20043100 -0.07479000 0.30098500
v -0.20043100 -0.07479000 0.30098500
v -0.20939100 -0.03596600 0.27222200
v -0.19350000 -0.06271100 0.32137600
v -0.19636400 -0.07847000 0.30944300
v -0.19444100 -0.00605600 0.31210600
v -0.19801200 -0.00383500 0.30075600
v -0.19801200 -0.00383500 0.30075600
v -0.19650400 0.02313700 0.28296300
v -0.20810600 0.02732100 0.23770500
v -0.21117500 0.01979700 0.23300400
v -0.21654700 -0.01446400 0.24704400
v -0.21654700 -0.01446400 0.24704400
v -0.21462400 -0.02540600 0.25465200
v -0.19999900 -0.06698900 0.30256400
v -0.19181300 -0.07418500 0.32569900
v -0.19181300 -0.07418500 0.32569900
v -0.20028800 -0.07494700 0.30126000
v -0.20914500 -0.03429900 0.27315800
v -0.19425200 -0.05342600 0.31962500
v -0.19370300 -0.07977900 0.31586800
v -0.19780900 -0.00184500 0.29975000
v -0.19691500 0.01093300 0.29190600
v -0.21421800 0.00266700 0.23855300
v -0.21643700 -0.01322000 0.24617900
v -0.21480100 -0.01526200 0.25453900
v -0.21480100 -0.01526200 0.25453900
v -0.21306000 -0.02327100 0.26016700
v -0.19735700 -0.07097000 0.30995600
v -0.19448100 -0.07315600 0.31809900
v -0.19157400 -0.07650700 0.32449300
v -0.20961500 -0.03301400 0.27159600
v -0.19323700 -0.07007900 0.32180400
v -0.19723500 -0.02911800 0.31215200
v -0.19151000 -0.05662000 0.32734300
v -0.19213300 -0.07906500 0.32085500
v -0.19146700 -0.07210500 0.32678100
v -0.19881700 -0.01519500 0.30649800
v -0.21010500 0.01754300 0.23979700
v -0.21195800 0.00680600 0.24348500
v -0.21487500 -0.01477500 0.25425300
v -0.21487500 -0.01477500 0.25425300
v -0.21482000 -0.01515700 0.25446500
v -0.21132300 -0.02922300 0.26587800
v -0.19123500 -0.06585900 0.32772000
v -0.19906300 -0.01748800 0.30742900
v -0.19906300 -0.01748800 0.30742900
v -0.19228600 -0.04597200 0.32559000
v -0.19572600 -0.01803700 0.31696700
v -0.19572600 -0.01803700 0.31696700
v -0.21367100 -0.00488600 0.24877300
v -0.19354300 -0.07245400 0.32082000
v -0.19534600 -0.02045500 0.31794600
v -0.19356400 -0.03391700 0.32245800
vn -0.86372948 0.48864237 0.12328835
vn -0.86047693 0.48686252 0.15014773
vn -0.86047693 0.48686252 0.15014773
vn -0.86372948 0.48864237 0.12328835
vn -0.86372948 0.48864237 0.12328835
vn -0.85659139 0.48472488 0.17689820
vn -0.86372948 0.48864237 0.12328835
vn -0.84693288 0.47938178 0.22999522
vn -0.85659139 0.48472488 0.17689820
vn -0.86047693 0.48686252 0.15014773
vn -0.86047693 0.48686252 0.15014773
vn -0.86372948 0.48864237 0.12328835
vn -0.86372948 0.48864237 0.12328835
vn -0.86372948 0.48864237 0.12328835
vn -0.84693288 0.47938178 0.22999522
vn -0.84116671 0.47617794 0.25630671
vn -0.84116671 0.47617794 0.25630671
vn -0.85659139 0.48472488 0.17689820
vn -0.86047693 0.48686252 0.15014773
vn -0.86047693 0.48686252 0.15014773
vn -0.86372948 0.48864237 0.12328835
vn -0.91268561 0.36789747 0.17792255
vn -0.91268561 0.36789747 0.17792255
vn -0.86372948 0.48864237 0.12328835
vn -0.86372948 0.48864237 0.12328835
vn -0.86372948 0.48864237 0.12328835
vn -0.86372948 0.48864237 0.12328835
vn -0.84693288 0.47938178 0.22999522
vn -0.85659139 0.48472488 0.17689820
vn -0.85659139 0.48472488 0.17689820
vn -0.86372948 0.48864237 0.12328835
vn -0.86047693 0.48686252 0.15014773
vn -0.86047693 0.48686252 0.15014773
vn -0.91268561 0.36789747 0.17792255
vn -0.91268561 0.36789747 0.17792255
vn -0.95344998 0.24489046 0.17595966
vn -0.95344998 0.24489046 0.17595966
vn -0.86372948 0.48864237 0.12328835
vn -0.83478167 0.47262497 0.28242735
vn -0.85659139 0.48472488 0.17689820
vn -0.85659139 0.48472488 0.17689820
vn -0.85659139 0.48472488 0.17689820
vn -0.95344998 0.24489046 0.17595966
vn -0.95344998 0.24489046 0.17595966
vn -0.95344998 0.24489046 0.17595966
vn -0.94854068 0.24337002 0.20258729
vn -0.94854068 0.24337002 0.20258729
vn -0.86372948 0.48864237 0.12328835
vn -0.83478167 0.47262497 0.28242735
vn -0.90237746 0.36352500 0.23144003
vn -0.90237746 0.36352500 0.23144003
vn -0.84693288 0.47938178 0.22999522
vn -0.85659139 0.48472488 0.17689820
vn -0.91268561 0.36789747 0.17792255
vn -0.91268561 0.36789747 0.17792255
vn -0.94854068 0.24337002 0.20258729
vn -0.94854068 0.24337002 0.20258729
vn -0.95344998 0.24489046 0.17595966
vn -0.94293359 0.24167139 0.22906588
vn -0.96771286 -0.01321118 0.25170873
vn -0.96771286 -0.01321118 0.25170873
vn -0.88937385 0.35806686 0.28425743
vn -0.88937385 0.35806686 0.28425743
vn -0.84116671 0.47617794 0.25630671
vn -0.84116671 0.47617794 0.25630671
vn -0.84693288 0.47938178 0.22999522
vn -0.94293359 0.24167139 0.22906588
vn -0.91268561 0.36789747 0.17792255
vn -0.91268561 0.36789747 0.17792255
vn -0.85659139 0.48472488 0.17689820
vn -0.95344998 0.24489046 0.17595966
vn -0.94854068 0.24337002 0.20258729
vn -0.94854068 0.24337002 0.20258729
vn -0.94854068 0.24337002 0.20258729
vn -0.94854068 0.24337002 0.20258729
vn -0.94293359 0.24167139 0.22906588
vn -0.96653484 0.11541095 0.22910852
vn -0.96653484 0.11541095 0.22910852
vn -0.97418929 -0.01275307 0.22537212
vn -0.96052465 -0.01365907 0.27785935
vn -0.88937385 0.35806686 0.28425743
vn -0.88937385 0.35806686 0.28425743
vn -0.83478167 0.47262497 0.28242735
vn -0.90237746 0.36352500 0.23144003
vn -0.90237746 0.36352500 0.23144003
vn -0.94293359 0.24167139 0.22906588
vn -0.95344998 0.24489046 0.17595966
vn -0.94854068 0.24337002 0.20258729
vn -0.94854068 0.24337002 0.20258729
vn -0.94854068 0.24337002 0.20258729
vn -0.94854068 0.24337002 0.20258729
vn -0.94293359 0.24167139 0.22906588
vn -0.94293359 0.24167139 0.22906588
vn -0.96771286 -0.01321118 0.25170873
vn -0.96771286 -0.01321118 0.25170873
vn -0.96052465 -0.01365907 0.27785935
vn -0.92964070 0.23774147 0.28150874
vn -0.94293359 0.24167139 0.22906588
vn -0.94293359 0.24167139 0.22906588
vn -0.94293359 0.24167139 0.22906588
vn -0.94293359 0.24167139 0.22906588
vn -0.94293359 0.24167139 0.22906588
vn -0.96052465 -0.01365907 0.27785935
vn -0.96052465 -0.01365907 0.27785935
vn -0.95262738 -0.01409675 0.30381304
vn -0.95262738 -0.01409675 0.30381304
vn -0.92196345 0.23551192 0.30743703
vn -0.92196345 0.23551192 0.30743703
vn -0.92964070 0.23774147 0.28150874
vn -0.92964070 0.23774147 0.28150874
vn -0.94293359 0.24167139 0.22906588
vn -0.94293359 0.24167139 0.22906588
vn -0.94293359 0.24167139 0.22906588
vn -0.94293359 0.24167139 0.22906588
vn -0.94293359 0.24167139 0.22906588
vn -0.96653484 0.11541095 0.22910852
vn -0.96653484 0.11541095 0.22910852
vn -0.96052465 -0.01365907 0.27785935
vn -0.95262738 -0.01409675 0.30381304
vn -0.95262738 -0.01409675 0.30381304
vn -0.96052465 -0.01365907 0.27785935
vn -0.91360738 0.23311051 0.33313819
vn -0.92964070 0.23774147 0.28150874
vn -0.92964070 0.23774147 0.28150874
vn -0.94293359 0.24167139 0.22906588
vn -0.94293359 0.24167139 0.22906588
vn -0.94293359 0.24167139 0.22906588
vn -0.96771286 -0.01321118 0.25170873
vn -0.96771286 -0.01321118 0.25170873
vn -0.96052465 -0.01365907 0.27785935
vn -0.93399216 -0.13912481 0.32909411
vn -0.93399216 -0.13912481 0.32909411
vn -0.96052465 -0.01365907 0.27785935
vn -0.94402861 -0.01452395 0.32954367
vn -0.90936101 -0.26155123 0.32350194
vn -0.91360738 0.23311051 0.33313819
vn -0.92196345 0.23551192 0.30743703
vn -0.92196345 0.23551192 0.30743703
vn -0.92964070 0.23774147 0.28150874
vn -0.94293359 0.24167139 0.22906588
vn -0.94293359 0.24167139 0.22906588
vn -0.96653484 0.11541095 0.22910852
vn -0.96653484 0.11541095 0.22910852
vn -0.96052465 -0.01365907 0.27785935
vn -0.94402861 -0.01452395 0.32954367
vn -0.93399216 -0.13912481 0.32909411
vn -0.93399216 -0.13912481 0.32909411
vn -0.90936101 -0.26155123 0.32350194
vn -0.96052465 -0.01365907 0.27785935
vn -0.94402861 -0.01452395 0.32954367
vn -0.90936101 -0.26155123 0.32350194
vn -0.92964070 0.23774147 0.28150874
vn -0.92964070 0.23774147 0.28150874
vn -0.94293359 0.24167139 0.22906588
vn -0.94293359 0.24167139 0.22906588
vn -0.96771286 -0.01321118 0.25170873
vn -0.96771286 -0.01321118 0.25170873
vn -0.96052465 -0.01365907 0.27785935
vn -0.94402861 -0.01452395 0.32954367
vn -0.94402861 -0.01452395 0.32954367
vn -0.90936101 -0.26155123 0.32350194
vn -0.96052465 -0.01365907 0.27785935
vn -0.94402861 -0.01452395 0.32954367
vn -0.94402861 -0.01452395 0.32954367
vn -0.94402861 -0.01452395 0.32954367
vn -0.90936101 -0.26155123 0.32350194
vn -0.94402861 -0.01452395 0.32954367
vn -0.91360738 0.23311051 0.33313819
vn -0.94293359 0.24167139 0.22906588
vn -0.94293359 0.24167139 0.22906588
vn -0.96653484 0.11541095 0.22910852
vn -0.96653484 0.11541095 0.22910852
vn -0.97418929 -0.01275307 0.22537212
vn -0.96052465 -0.01365907 0.27785935
vn -0.94402861 -0.01452395 0.32954367
vn -0.93613257 0.11015339 0.33394915
vn -0.93613257 0.11015339 0.33394915
vn -0.94402861 -0.01452395 0.32954367
vn -0.93613257 0.11015339 0.33394915
vn -0.93613257 0.11015339 0.33394915
vn -0.94293359 0.24167139 0.22906588
vn -0.94402861 -0.01452395 0.32954367
vn -0.94402861 -0.01452395 0.32954367
vn -0.94402861 -0.01452395 0.32954367
vt -0.06285300 -0.02040300
vt -0.07018800 -0.01273600
vt -0.06179100 -0.02042400
vt -0.06370000 -0.01999800
vt -0.06430000 -0.01926500
vt -0.07004900 -0.01275600
vt -0.06460400 -0.01831000
vt -0.05364900 -0.00381800
vt -0.06858800 -0.01245800
vt -0.05922200 -0.00874200
vt -0.06659700 -0.00132600
vt -0.06289700 -0.01944600
vt -0.06456700 -0.01724200
vt -0.06363400 -0.01886100
vt -0.05532200 -0.00249600
vt -0.05982100 0.00334400
vt -0.05356900 -0.00384200
vt -0.06685900 -0.01169400
vt -0.06152400 -0.01921100
vt -0.06981500 -0.01155100
vt -0.05953700 -0.00904500
vt -0.06593300 -0.00080800
vt -0.08183500 -0.01191000
vt -0.06220800 -0.01944000
vt -0.06335100 -0.01923300
vt -0.06371500 -0.01474000
vt -0.06369000 -0.01763900
vt -0.05641600 -0.00054500
vt -0.06486200 -0.01046500
vt -0.06958900 -0.01150300
vt -0.06203800 -0.01200800
vt -0.05999400 -0.01225400
vt -0.06767600 -0.00475600
vt -0.07949200 -0.01342400
vt -0.06328900 -0.00169200
vt -0.07887700 -0.01089400
vt -0.06528200 -0.00591300
vt -0.06327300 -0.01633600
vt -0.05792000 0.00253200
vt -0.06099800 -0.00736400
vt -0.06701600 -0.01029100
vt -0.06749000 -0.00459300
vt -0.07798100 -0.01300100
vt -0.07327300 -0.00945800
vt -0.06584100 -0.00632400
vt -0.07024700 0.00671400
vt -0.06516500 -0.00595200
vt -0.06248200 -0.01492200
vt -0.05558800 0.00236600
vt -0.07459100 -0.00795600
vt -0.05671400 0.00058500
vt -0.05410400 -0.00147000
vt -0.06320000 -0.00758700
vt -0.05870100 -0.00322600
vt -0.07543000 -0.01604900
vt -0.07086600 0.00600800
vt -0.06568800 -0.00673200
vt -0.06588300 -0.00659600
vt -0.06965900 0.00641700
vt -0.06430000 0.05096800
vt -0.06414200 0.04591000
vt -0.07169100 -0.00330900
vt -0.05304600 0.00285100
vt -0.05884600 0.00528700
vt -0.05274700 -0.00183000
vt -0.05509400 -0.00073800
vt -0.07459100 -0.00795300
vt -0.07432100 -0.01676500
vt -0.05745000 -0.00364500
vt -0.05903100 -0.00361300
vt -0.07117200 -0.01353100
vt -0.06663500 -0.00814200
vt -0.07198600 0.00473100
vt -0.06848100 -0.01089000
vt -0.07416900 0.00224300
vt -0.06928600 0.00568700
vt -0.06750700 0.00474600
vt -0.07008000 0.05377700
vt -0.06465900 0.04667000
vt -0.05999300 0.04464300
vt -0.05723600 0.00512100
vt -0.07503800 0.00008300
vt -0.05847900 0.00514500
vt -0.07363100 -0.00875700
vt -0.05556800 0.00008300
vt -0.07438500 -0.00695100
vt -0.07393600 -0.01656500
vt -0.06922100 -0.01199200
vt -0.07504400 0.00124500
vt -0.07092000 -0.01452200
vt -0.07705400 -0.00104700
vt -0.07086300 0.00600600
vt -0.07064000 0.00585900
vt -0.06708400 0.05105400
vt -0.06692600 0.04601600
vt -0.06048700 0.04170500
vt -0.07154600 -0.00333600
vt -0.07398100 -0.00601200
vt -0.07366800 -0.00862300
vt -0.07323700 0.00231500
vt -0.07055600 0.00543100
vt -0.06959400 0.00483000
vt -0.06572500 0.04924800
vt -0.05830800 0.04176500
vt -0.05936400 0.03981800
vt -0.05941500 0.04492400
vt -0.06430300 -0.00289400
vt -0.06812000 0.00735500
vt -0.06834800 -0.00338700
vt -0.07418200 -0.00025000
vt -0.07338000 -0.00513800
vt -0.07346800 -0.00758900
vt -0.07555500 -0.00030300
vt -0.07169500 0.00237000
vt -0.07098500 0.00478500
vt -0.07012600 0.05027500
vt -0.06493100 0.00237200
vt -0.06569900 0.04807700
vt -0.05736900 0.04487000
vt -0.05731800 0.03975500
vt -0.06555800 0.04736700
vt -0.06596900 0.00755200
vt -0.06532100 -0.00308700
vt -0.07155500 -0.00068100
vt -0.07279300 -0.00651000
vt -0.07229300 -0.00401700
vt -0.06601000 0.00242400
vt -0.06785100 0.04605200
vt -0.06800900 0.05108200
vt -0.06613900 0.04891900
vt -0.05719100 0.04450800
vt -0.04031500 0.08261300
vt -0.06569600 0.04669900
vt -0.06015900 0.03969600
vt -0.04087700 0.08037500
vt -0.06264400 0.00813300
vt -0.06455000 0.01014400
vt -0.06097900 0.00018300
vt -0.06832500 -0.00075500
vt -0.07132100 -0.00503800
vt -0.07091700 -0.00292700
vt -0.06318900 0.00076500
vt -0.07015700 0.04790500
vt -0.06791300 0.05100500
vt -0.05899100 0.04420800
vt -0.04398000 0.07787000
vt -0.05757900 0.03852600
vt -0.04032600 0.08253400
vt -0.06608700 0.04649500
vt -0.06226500 0.04022000
vt -0.04156900 0.07890900
vt -0.06147600 0.00005600
vt -0.06486900 -0.00049800
vt -0.06729800 -0.00083500
vt -0.06352900 0.00069000
vt -0.07023100 0.05115100
vt -0.07007200 0.04613600
vt -0.06846300 0.04971700
vt -0.05815500 0.04237500
vt -0.05773700 0.04037900
vt -0.04339300 0.07773900
vt -0.06636300 0.04688200
vt -0.05847800 0.03951400
vt -0.06774900 0.04229000
vt -0.06161200 0.03831600
vt -0.04241400 0.07804600
vt -0.05806500 0.03828700
vt -0.06166600 0.01059700
vt -0.06943300 -0.00366400
vt -0.06713000 -0.00238800
vt -0.06194200 -0.00038400
vt -0.07018000 0.04620900
vt -0.07009500 0.04615400
vt -0.06716600 0.04828800
vt -0.05950300 0.03812600
vt -0.07036100 0.04355800
vt -0.06111400 0.01073500
vt -0.06403000 0.03885500
vt -0.05975900 0.00885600
vt -0.07033200 0.04124200
vt -0.06441000 -0.00121100
vt -0.05792600 0.03972700
vt -0.06978900 0.04097800
vt -0.06675500 0.03974200
f 1/1/1 4/4/4 3/3/3
f 4/4/4 5/5/5 3/3/3
f 6/6/6 2/2/2 9/9/9
f 5/5/5 12/12/12 3/3/3
f 5/5/5 7/7/7 14/14/14
f 2/2/2 20/20/20 9/9/9
f 12/12/12 24/24/24 3/3/3
f 12/12/12 5/5/5 25/25/25
f 7/7/7 13/13/13 27/27/27
f 14/14/14 7/7/7 27/27/27
f 25/25/25 5/5/5 14/14/14
f 8/8/8 15/15/15 17/17/17
f 9/9/9 30/30/30 18/18/18
f 20/20/20 30/30/30 9/9/9
f 19/19/19 3/3/3 24/24/24
f 10/10/10 32/32/32 21/21/21
f 22/22/22 35/35/35 11/11/11
f 13/13/13 26/26/26 38/38/38
f 27/27/27 13/13/13 38/38/38
f 15/15/15 28/28/28 17/17/17
f 18/18/18 41/41/41 29/29/29
f 30/30/30 41/41/41 18/18/18
f 31/31/31 21/21/21 32/32/32
f 33/33/33 11/11/11 42/42/42
f 42/42/42 11/11/11 35/35/35
f 34/34/34 23/23/23 43/43/43
f 23/23/23 36/36/36 43/43/43
f 26/26/26 31/31/31 48/48/48
f 38/38/38 26/26/26 48/48/48
f 39/39/39 16/16/16 49/49/49
f 28/28/28 52/52/52 17/17/17
f 29/29/29 53/53/53 40/40/40
f 41/41/41 53/53/53 29/29/29
f 48/48/48 31/31/31 32/32/32
f 36/36/36 44/44/44 43/43/43
f 45/45/45 37/37/37 57/57/57
f 47/47/47 57/57/57 37/37/37
f 16/16/16 64/64/64 49/49/49
f 28/28/28 51/51/51 66/66/66
f 65/65/65 17/17/17 52/52/52
f 52/52/52 28/28/28 66/66/66
f 53/53/53 70/70/70 40/40/40
f 43/43/43 44/44/44 74/74/74
f 58/58/58 45/45/45 57/57/57
f 56/56/56 46/46/46 76/76/76
f 59/59/59 76/76/76 46/46/46
f 63/63/63 49/49/49 81/81/81
f 64/64/64 83/83/83 49/49/49
f 85/85/85 66/66/66 51/51/51
f 50/50/50 67/67/67 84/84/84
f 40/40/40 70/70/70 69/69/69
f 54/54/54 69/69/69 70/70/70
f 55/55/55 71/71/71 90/90/90
f 72/72/72 74/74/74 44/44/44
f 93/93/93 56/56/56 76/76/76
f 61/61/61 95/95/95 79/79/79
f 60/60/60 80/80/80 96/96/96
f 83/83/83 81/81/81 49/49/49
f 62/62/62 82/82/82 97/97/97
f 67/67/67 86/86/86 99/99/99
f 84/84/84 67/67/67 99/99/99
f 68/68/68 55/55/55 87/87/87
f 88/88/88 90/90/90 71/71/71
f 87/87/87 55/55/55 90/90/90
f 75/75/75 73/73/73 100/100/100
f 92/92/92 56/56/56 93/93/93
f 76/76/76 102/102/102 93/93/93
f 78/78/78 79/79/79 95/95/95
f 94/94/94 60/60/60 103/103/103
f 96/96/96 80/80/80 105/105/105
f 103/103/103 60/60/60 96/96/96
f 82/82/82 110/110/110 97/97/97
f 86/86/86 98/98/98 112/112/112
f 99/99/99 86/86/86 112/112/112
f 91/91/91 89/89/89 113/113/113
f 100/100/100 73/73/73 114/114/114
f 89/89/89 100/100/100 113/113/113
f 101/101/101 93/93/93 102/102/102
f 77/77/77 117/117/117 102/102/102
f 116/116/116 78/78/78 95/95/95
f 80/80/80 104/104/104 105/105/105
f 97/97/97 124/124/124 109/109/109
f 110/110/110 124/124/124 97/97/97
f 98/98/98 111/111/111 125/125/125
f 112/112/112 98/98/98 125/125/125
f 73/73/73 115/115/115 114/114/114
f 114/114/114 113/113/113 100/100/100
f 115/115/115 101/101/101 114/114/114
f 101/101/101 102/102/102 114/114/114
f 127/127/127 102/102/102 117/117/117
f 120/120/120 105/105/105 104/104/104
f 108/108/108 137/137/137 122/122/122
f 123/123/123 139/139/139 107/107/107
f 109/109/109 139/139/139 123/123/123
f 124/124/124 139/139/139 109/109/109
f 125/125/125 111/111/111 140/140/140
f 111/111/111 126/126/126 140/140/140
f 114/114/114 102/102/102 127/127/127
f 121/121/121 133/133/133 118/118/118
f 130/130/130 118/118/118 133/133/133
f 106/106/106 119/119/119 145/145/145
f 131/131/131 147/147/147 119/119/119
f 122/122/122 137/137/137 136/136/136
f 138/138/138 107/107/107 152/152/152
f 139/139/139 153/153/153 107/107/107
f 126/126/126 141/141/141 140/140/140
f 128/128/128 157/157/157 143/143/143
f 129/129/129 144/144/144 158/158/158
f 144/144/144 130/130/130 149/149/149
f 149/149/149 130/130/130 133/133/133
f 145/145/145 119/119/119 159/159/159
f 160/160/160 119/119/119 147/147/147
f 146/146/146 132/132/132 161/161/161
f 132/132/132 148/148/148 161/161/161
f 150/150/150 134/134/134 165/165/165
f 148/148/148 135/135/135 166/166/166
f 151/151/151 166/166/166 135/135/135
f 137/137/137 168/168/168 136/136/136
f 153/153/153 152/152/152 107/107/107
f 140/140/140 141/141/141 169/169/169
f 141/141/141 154/154/154 170/170/170
f 142/142/142 171/171/171 155/155/155
f 173/173/173 143/143/143 157/157/157
f 156/156/156 129/129/129 158/158/158
f 158/158/158 144/144/144 174/174/174
f 162/162/162 144/144/144 149/149/149
f 159/159/159 119/119/119 160/160/160
f 147/147/147 167/167/167 160/160/160
f 161/161/161 148/148/148 166/166/166
f 134/134/134 163/163/163 175/175/175
f 164/164/164 150/150/150 178/178/178
f 165/165/165 134/134/134 175/175/175
f 178/178/178 150/150/150 165/165/165
f 136/136/136 168/168/168 179/179/179
f 169/169/169 141/141/141 170/170/170
f 170/170/170 154/154/154 181/181/181
f 154/154/154 155/155/155 181/181/181
f 181/181/181 155/155/155 171/171/171
f 172/172/172 143/143/143 173/173/173
f 174/174/174 144/144/144 162/162/162
f 182/182/182 160/160/160 167/167/167
f 175/175/175 163/163/163 167/167/167
f 176/176/176 164/164/164 183/183/183
f 184/184/184 164/164/164 178/178/178
f 177/177/177 179/179/179 168/168/168
f 163/163/163 182/182/182 167/167/167
f 183/183/183 164/164/164 184/184/184
f 180/180/180 176/176/176 183/183/183